<svg width="152" height="53" viewBox="0 0 152 53" fill="none" xmlns="http://www.w3.org/2000/svg">
<rect width="151.429" height="53" rx="26.5" fill="#548A54"/>
<path d="M54.2985 29.1154H35.9985V27.0968H54.2985V29.1154ZM52.1913 25.5219H38.2388V18.4459H52.0804V20.4422H40.701V23.5477H52.1913V25.5219ZM45.1152 30.5128C46.5497 30.5054 47.7845 30.6459 48.8196 30.9343C49.8622 31.2153 50.6607 31.6293 51.2153 32.1765C51.7698 32.7236 52.0508 33.3817 52.0582 34.1507C52.0508 34.927 51.7698 35.5888 51.2153 36.136C50.6607 36.6905 49.8659 37.112 48.8307 37.4003C47.7955 37.6887 46.5571 37.8329 45.1152 37.8329C43.6586 37.8329 42.4053 37.6887 41.3554 37.4003C40.3128 37.112 39.5143 36.6905 38.9598 36.136C38.4052 35.5888 38.1279 34.927 38.1279 34.1507C38.1279 33.3817 38.4052 32.7236 38.9598 32.1765C39.5143 31.6293 40.3165 31.2153 41.3665 30.9343C42.4164 30.6459 43.666 30.5054 45.1152 30.5128ZM45.1152 32.3983C43.6512 32.3983 42.5347 32.5499 41.7658 32.853C40.9968 33.1488 40.6197 33.5813 40.6345 34.1507C40.6271 34.7348 41.0042 35.1784 41.7658 35.4816C42.5273 35.7773 43.6438 35.9252 45.1152 35.9252C46.5571 35.9252 47.6625 35.7773 48.4314 35.4816C49.2004 35.1784 49.5886 34.7348 49.596 34.1507C49.5886 33.5887 49.1967 33.1562 48.4203 32.853C47.6514 32.5499 46.5497 32.3983 45.1152 32.3983ZM73.9295 30.6459H55.6073V28.6496H63.5484V26.9859H57.9364V21.6622H69.2048V20.1761H57.8698V18.2462H71.667V23.459H60.3764V25.0561H72.0663V26.9859H65.9884V28.6496H73.9295V30.6459ZM71.7779 37.722H69.2935V33.8623H57.648V31.9103H71.7779V37.722ZM90.9653 25.7881H94.0485V27.8288H90.9653V37.8551H88.5253V17.8026H90.9653V25.7881ZM86.9725 22.8601H75.1496V20.8859H79.8965V18.091H82.3587V20.8859H86.9725V22.8601ZM81.1387 24.1688C82.0925 24.1688 82.9502 24.3721 83.7118 24.7788C84.4807 25.1781 85.0834 25.7363 85.5196 26.4535C85.9558 27.1708 86.174 27.9841 86.174 28.8936C86.174 29.803 85.9558 30.6164 85.5196 31.3336C85.0834 32.0434 84.4807 32.5979 83.7118 32.9972C82.9502 33.3965 82.0925 33.5961 81.1387 33.5961C80.1701 33.5961 79.3013 33.3965 78.5323 32.9972C77.7633 32.5979 77.1607 32.0434 76.7245 31.3336C76.2882 30.6164 76.0738 29.803 76.0812 28.8936C76.0738 27.9841 76.2882 27.1708 76.7245 26.4535C77.1607 25.7363 77.7633 25.1781 78.5323 24.7788C79.3013 24.3721 80.1701 24.1688 81.1387 24.1688ZM81.1387 26.1874C80.6137 26.1874 80.1442 26.2983 79.7301 26.5201C79.3235 26.7419 79.0055 27.0598 78.7763 27.4739C78.5471 27.8806 78.4325 28.3538 78.4325 28.8936C78.4325 29.4333 78.5471 29.9065 78.7763 30.3132C79.0055 30.7125 79.3235 31.023 79.7301 31.2448C80.1442 31.4593 80.6137 31.5628 81.1387 31.5554C81.6489 31.5628 82.1036 31.4593 82.5029 31.2448C82.9095 31.023 83.2275 30.7125 83.4567 30.3132C83.6933 29.9065 83.8153 29.4333 83.8227 28.8936C83.8153 28.3538 83.6933 27.8806 83.4567 27.4739C83.2275 27.0672 82.9095 26.753 82.5029 26.5312C82.1036 26.302 81.6489 26.1874 81.1387 26.1874ZM111.639 37.8551H109.154V17.8026H111.639V37.8551ZM105.65 19.9321C105.65 23.1189 104.929 25.9175 103.487 28.3279C102.045 30.731 99.6532 32.7236 96.3111 34.3059L95.0246 32.3318C97.6051 31.1044 99.546 29.6366 100.847 27.9286C102.156 26.2132 102.921 24.1984 103.143 21.8841H96.0449V19.9321H105.65Z" fill="white"/>
</svg>
