<svg width="152" height="53" viewBox="0 0 152 53" fill="none" xmlns="http://www.w3.org/2000/svg">
<rect width="151.429" height="53" rx="26.5" fill="#E8E8E8"/>
<path d="M54.2988 29.1154H35.9987V27.0968H54.2988V29.1154ZM52.1915 25.5219H38.2391V18.4459H52.0806V20.4422H40.7013V23.5477H52.1915V25.5219ZM45.1155 30.5128C46.5499 30.5054 47.7847 30.6459 48.8199 30.9343C49.8624 31.2153 50.661 31.6293 51.2155 32.1765C51.7701 32.7236 52.051 33.3817 52.0584 34.1507C52.051 34.927 51.7701 35.5888 51.2155 36.136C50.661 36.6905 49.8661 37.112 48.8309 37.4003C47.7958 37.6887 46.5573 37.8329 45.1155 37.8329C43.6589 37.8329 42.4056 37.6887 41.3556 37.4003C40.3131 37.112 39.5145 36.6905 38.96 36.136C38.4054 35.5888 38.1282 34.927 38.1282 34.1507C38.1282 33.3817 38.4054 32.7236 38.96 32.1765C39.5145 31.6293 40.3168 31.2153 41.3667 30.9343C42.4167 30.6459 43.6663 30.5054 45.1155 30.5128ZM45.1155 32.3983C43.6515 32.3983 42.535 32.5499 41.766 32.853C40.997 33.1488 40.6199 33.5813 40.6347 34.1507C40.6273 34.7348 41.0044 35.1784 41.766 35.4816C42.5276 35.7773 43.6441 35.9252 45.1155 35.9252C46.5573 35.9252 47.6627 35.7773 48.4317 35.4816C49.2006 35.1784 49.5888 34.7348 49.5962 34.1507C49.5888 33.5887 49.197 33.1562 48.4206 32.853C47.6516 32.5499 46.5499 32.3983 45.1155 32.3983ZM73.9298 30.6459H55.6075V28.6496H63.5487V26.9859H57.9366V21.6622H69.205V20.1761H57.8701V18.2462H71.6672V23.459H60.3766V25.0561H72.0665V26.9859H65.9887V28.6496H73.9298V30.6459ZM71.7781 37.722H69.2938V33.8623H57.6483V31.9103H71.7781V37.722ZM90.9655 25.7881H94.0488V27.8288H90.9655V37.8551H88.5255V17.8026H90.9655V25.7881ZM86.9728 22.8601H75.1498V20.8859H79.8967V18.091H82.3589V20.8859H86.9728V22.8601ZM81.1389 24.1688C82.0927 24.1688 82.9504 24.3721 83.712 24.7788C84.481 25.1781 85.0836 25.7363 85.5198 26.4535C85.9561 27.1708 86.1742 27.9841 86.1742 28.8936C86.1742 29.803 85.9561 30.6164 85.5198 31.3336C85.0836 32.0434 84.481 32.5979 83.712 32.9972C82.9504 33.3965 82.0927 33.5961 81.1389 33.5961C80.1703 33.5961 79.3015 33.3965 78.5325 32.9972C77.7636 32.5979 77.161 32.0434 76.7247 31.3336C76.2885 30.6164 76.074 29.803 76.0814 28.8936C76.074 27.9841 76.2885 27.1708 76.7247 26.4535C77.161 25.7363 77.7636 25.1781 78.5325 24.7788C79.3015 24.3721 80.1703 24.1688 81.1389 24.1688ZM81.1389 26.1874C80.6139 26.1874 80.1444 26.2983 79.7304 26.5201C79.3237 26.7419 79.0058 27.0598 78.7765 27.4739C78.5473 27.8806 78.4327 28.3538 78.4327 28.8936C78.4327 29.4333 78.5473 29.9065 78.7765 30.3132C79.0058 30.7125 79.3237 31.023 79.7304 31.2448C80.1444 31.4593 80.6139 31.5628 81.1389 31.5554C81.6491 31.5628 82.1038 31.4593 82.5031 31.2448C82.9098 31.023 83.2277 30.7125 83.4569 30.3132C83.6935 29.9065 83.8155 29.4333 83.8229 28.8936C83.8155 28.3538 83.6935 27.8806 83.4569 27.4739C83.2277 27.0672 82.9098 26.753 82.5031 26.5312C82.1038 26.302 81.6491 26.1874 81.1389 26.1874ZM111.639 37.8551H109.155V17.8026H111.639V37.8551ZM105.65 19.9321C105.65 23.1189 104.929 25.9175 103.487 28.3279C102.045 30.731 99.6534 32.7236 96.3114 34.3059L95.0248 32.3318C97.6053 31.1044 99.5462 29.6366 100.848 27.9286C102.156 26.2132 102.922 24.1984 103.143 21.8841H96.0452V19.9321H105.65Z" fill="#707070"/>
</svg>
