<svg width="350" height="80" viewBox="0 0 350 80" fill="none" xmlns="http://www.w3.org/2000/svg">
<g filter="url(#filter0_i_1462_2442)">
<rect width="350" height="80" rx="40" fill="#3053F9"/>
</g>
<path d="M295.404 40.6245H317.844" stroke="white" stroke-width="1.60283" stroke-linecap="round"/>
<path d="M313.035 47.0356L317.844 40.6243" stroke="white" stroke-width="1.60283" stroke-linecap="round"/>
<path d="M313.035 34.2131L317.844 40.6245" stroke="white" stroke-width="1.60283" stroke-linecap="round"/>
<path d="M99.1328 44.0703H79.6328V41.7031H87.8594V39.6172H82V31.8594H96.7891V34.25H84.9766V37.2266H97V39.6172H90.8828V41.7031H99.1328V44.0703ZM97.1172 51.7812H81.9766V45.5469H84.9297V49.3906H97.1172V51.7812ZM111.602 33.6406C111.602 34.7031 111.902 35.7422 112.504 36.7578C113.113 37.7734 113.992 38.6562 115.141 39.4062C116.297 40.1562 117.648 40.6641 119.195 40.9297L117.883 43.4141C116.055 43.0547 114.461 42.3867 113.102 41.4102C111.75 40.4336 110.723 39.2461 110.02 37.8477C109.301 39.2383 108.262 40.4219 106.902 41.3984C105.551 42.375 103.969 43.0469 102.156 43.4141L100.867 40.9297C102.391 40.6562 103.723 40.1445 104.863 39.3945C106.004 38.6445 106.879 37.7617 107.488 36.7461C108.098 35.7227 108.406 34.6875 108.414 33.6406V32.0938H111.602V33.6406ZM119.898 49.5312H100.375V47.0703H119.898V49.5312ZM133.281 35.1875H131.383V44.4922C132.336 44.4141 133.18 44.3281 133.914 44.2344L134.078 46.3906C132.148 46.7344 130.141 46.9609 128.055 47.0703C125.969 47.1797 123.672 47.2422 121.164 47.2578L120.836 44.8203L123.273 44.7969V35.1875H121.375V32.7969H133.281V35.1875ZM137.945 38.9375H141.086V41.375H137.945V52.1562H134.945V30.8281H137.945V38.9375ZM128.5 44.668V35.1875H126.156V44.75L128.5 44.668ZM159.719 52.2031H156.695V30.8281H159.719V52.2031ZM148.141 32.3281C149.211 32.3281 150.168 32.6406 151.012 33.2656C151.863 33.8906 152.531 34.7773 153.016 35.9258C153.5 37.0742 153.742 38.4062 153.742 39.9219C153.742 41.4531 153.5 42.7969 153.016 43.9531C152.531 45.1016 151.863 45.9883 151.012 46.6133C150.168 47.2305 149.211 47.5391 148.141 47.5391C147.047 47.5391 146.07 47.2305 145.211 46.6133C144.352 45.9883 143.68 45.1016 143.195 43.9531C142.719 42.7969 142.484 41.4531 142.492 39.9219C142.484 38.4062 142.719 37.0742 143.195 35.9258C143.68 34.7773 144.352 33.8906 145.211 33.2656C146.07 32.6406 147.047 32.3281 148.141 32.3281ZM148.141 35.0234C147.586 35.0234 147.098 35.2148 146.676 35.5977C146.262 35.9727 145.941 36.5273 145.715 37.2617C145.488 37.9961 145.375 38.8828 145.375 39.9219C145.375 40.9688 145.488 41.8594 145.715 42.5938C145.941 43.3281 146.262 43.8828 146.676 44.2578C147.098 44.6328 147.586 44.8203 148.141 44.8203C148.688 44.8203 149.164 44.6328 149.57 44.2578C149.977 43.875 150.293 43.3164 150.52 42.582C150.746 41.8477 150.859 40.9609 150.859 39.9219C150.859 38.8906 150.746 38.0078 150.52 37.2734C150.293 36.5312 149.973 35.9727 149.559 35.5977C149.152 35.2148 148.68 35.0234 148.141 35.0234ZM180.062 35.1875C180.062 36.5547 180.047 37.7148 180.016 38.668C179.984 39.6133 179.895 40.6914 179.746 41.9023C179.605 43.1133 179.383 44.4375 179.078 45.875L176.102 45.5938C176.469 44.0547 176.738 42.4609 176.91 40.8125L164.547 41.4219L164.172 39.0312L177.062 38.5625C177.078 38.1797 177.09 37.7305 177.098 37.2148C177.113 36.6992 177.125 36.2109 177.133 35.75V35.1875V35.0938H164.828V32.7031H180.062V35.1875ZM182.055 49.6016H162.602V47.1641H182.055V49.6016ZM205.703 38.7969H208.844V41.3047H205.703V52.1562H202.703V30.8281H205.703V38.7969ZM192.531 37.7188H196.961V32.5156H199.938V47.2109H189.555V32.5156H192.531V37.7188ZM196.961 44.7969V40.0391H192.531V44.7969H196.961ZM229.141 49.7891H209.617V47.3281H217.844V44.1172H211.867V36.9453H223.938V34.6016H211.844V32.2109H226.891V39.2891H214.867V41.6797H227.383V44.1172H220.82V47.3281H229.141V49.7891ZM247.188 39.0078H250.211V41.4688H247.188V52.1094H244.188V30.8281H247.188V39.0078ZM241.492 33.0078C241.477 36.4062 240.711 39.4102 239.195 42.0195C237.688 44.6211 235.227 46.7578 231.812 48.4297L230.125 46.1328C232.664 44.8594 234.613 43.3516 235.973 41.6094C237.34 39.8672 238.164 37.8125 238.445 35.4453H231.344V33.0078H241.492ZM269.031 52.1562H266.008V30.8281H269.031V52.1562ZM262.633 33.0547C262.633 35.3359 262.324 37.4102 261.707 39.2773C261.098 41.1445 260.066 42.8594 258.613 44.4219C257.16 45.9766 255.203 47.3359 252.742 48.5L251.172 46.1094C252.992 45.25 254.492 44.293 255.672 43.2383C256.859 42.1836 257.766 41.0156 258.391 39.7344C259.023 38.4453 259.422 37 259.586 35.3984H252.32V33.0547H262.633Z" fill="#F0F1F5"/>
<g filter="url(#filter1_bif_1462_2442)">
<circle cx="39.5" cy="40.5" r="17.5" fill="url(#paint0_linear_1462_2442)"/>
</g>
<g filter="url(#filter2_if_1462_2442)">
<path d="M33.2692 41.0392L41.1744 31.533C41.6491 30.9621 42.5697 31.4206 42.4002 32.1434L40.95 38.3283C40.8517 38.7475 41.1496 39.1558 41.5788 39.1902L44.5071 39.4244C45.0787 39.4702 45.3584 40.1437 44.9874 40.5809L37.1133 49.8594C36.6323 50.4262 35.7153 49.9566 35.894 49.235L37.422 43.0652C37.5319 42.6216 37.1962 42.1926 36.7391 42.1926H33.8101C33.2139 42.1926 32.888 41.4976 33.2692 41.0392Z" fill="url(#paint1_linear_1462_2442)"/>
</g>
<defs>
<filter id="filter0_i_1462_2442" x="-4" y="0" width="354" height="84" filterUnits="userSpaceOnUse" color-interpolation-filters="sRGB">
<feFlood flood-opacity="0" result="BackgroundImageFix"/>
<feBlend mode="normal" in="SourceGraphic" in2="BackgroundImageFix" result="shape"/>
<feColorMatrix in="SourceAlpha" type="matrix" values="0 0 0 0 0 0 0 0 0 0 0 0 0 0 0 0 0 0 127 0" result="hardAlpha"/>
<feOffset dx="-4" dy="4"/>
<feGaussianBlur stdDeviation="2"/>
<feComposite in2="hardAlpha" operator="arithmetic" k2="-1" k3="1"/>
<feColorMatrix type="matrix" values="0 0 0 0 1 0 0 0 0 1 0 0 0 0 1 0 0 0 0.2 0"/>
<feBlend mode="normal" in2="shape" result="effect1_innerShadow_1462_2442"/>
</filter>
<filter id="filter1_bif_1462_2442" x="14.5333" y="15.5333" width="49.9333" height="49.9333" filterUnits="userSpaceOnUse" color-interpolation-filters="sRGB">
<feFlood flood-opacity="0" result="BackgroundImageFix"/>
<feGaussianBlur in="BackgroundImageFix" stdDeviation="3.73333"/>
<feComposite in2="SourceAlpha" operator="in" result="effect1_backgroundBlur_1462_2442"/>
<feBlend mode="normal" in="SourceGraphic" in2="effect1_backgroundBlur_1462_2442" result="shape"/>
<feColorMatrix in="SourceAlpha" type="matrix" values="0 0 0 0 0 0 0 0 0 0 0 0 0 0 0 0 0 0 127 0" result="hardAlpha"/>
<feOffset dy="1.86667"/>
<feGaussianBlur stdDeviation="3.73333"/>
<feComposite in2="hardAlpha" operator="arithmetic" k2="-1" k3="1"/>
<feColorMatrix type="matrix" values="0 0 0 0 1 0 0 0 0 1 0 0 0 0 1 0 0 0 0.8 0"/>
<feBlend mode="normal" in2="shape" result="effect2_innerShadow_1462_2442"/>
<feGaussianBlur stdDeviation="0.233333" result="effect3_foregroundBlur_1462_2442"/>
</filter>
<filter id="filter2_if_1462_2442" x="32.6386" y="30.8095" width="12.9836" height="21.1683" filterUnits="userSpaceOnUse" color-interpolation-filters="sRGB">
<feFlood flood-opacity="0" result="BackgroundImageFix"/>
<feBlend mode="normal" in="SourceGraphic" in2="BackgroundImageFix" result="shape"/>
<feColorMatrix in="SourceAlpha" type="matrix" values="0 0 0 0 0 0 0 0 0 0 0 0 0 0 0 0 0 0 127 0" result="hardAlpha"/>
<feOffset dy="1.86667"/>
<feGaussianBlur stdDeviation="0.933333"/>
<feComposite in2="hardAlpha" operator="arithmetic" k2="-1" k3="1"/>
<feColorMatrix type="matrix" values="0 0 0 0 0.185287 0 0 0 0 0.240234 0 0 0 0 0.180509 0 0 0 0.25 0"/>
<feBlend mode="normal" in2="shape" result="effect1_innerShadow_1462_2442"/>
<feGaussianBlur stdDeviation="0.233333" result="effect2_foregroundBlur_1462_2442"/>
</filter>
<linearGradient id="paint0_linear_1462_2442" x1="39.5" y1="23" x2="39.6357" y2="46.469" gradientUnits="userSpaceOnUse">
<stop stop-color="#6F87FB"/>
<stop offset="1" stop-color="#3053F9"/>
</linearGradient>
<linearGradient id="paint1_linear_1462_2442" x1="42.2132" y1="30.4612" x2="39.5" y2="40.6356" gradientUnits="userSpaceOnUse">
<stop stop-color="#F1FFDE"/>
<stop offset="1" stop-color="#C5FE79"/>
</linearGradient>
</defs>
</svg>
